<svg xmlns="http://www.w3.org/2000/svg" width="707" height="693" viewBox="0 0 707 693">
  <defs>
    <style>
      .cls-1 {
        fill: #fff;
        fill-rule: evenodd;
      }
    </style>
  </defs>
  <path id="Color_Fill_1" data-name="Color Fill 1" class="cls-1" d="M447,90V250c-21.058,6.143-24,41.392-4,51-9.3,18.781-24.724,16.483-17,46,3.708,2.644,7.028,6.677,12,8,10.965,2.917,22.673-5.667,24-13l-7-11c-3.9-1.24-7.886,9.473-12,6-1.829-1.568-1.395-.882-2-4,5.1-6.067,11.781-12.549,16-19,1.9-2.906,1.46-5.829,4-8l12-4c6.842-4.218,17.135-16.605,14-30-1.684-7.195-5.778-15.23-11-19-1.822-1.315-7.932-2.172-9-4q-0.5-23.5-1-47,0.5-60.995,1-122c5.421-2.586,7.229-5.608,7-14-1.262-1.359-1.365-1.768-2-4-3.86-2.294-5.458-3.867-12-4-11.775,10.68-32.087,17.229-46,26-29,18.28-57.319,38.078-85,58-35.743,25.724-66.061,58.592-101,85-7.575,5.726-14.8,14.724-21,22-2.045,2.4-6.041,3.423-8,6-1.711,2.251-2.614,5.6-5,7-2.42,1.425-4.815.527-7,2l-7,8c-7.318,7.314-14.614,14.765-22,22-30.138,29.519-61.134,58.227-90,89-21.814.071-45.8,0.442-66-1-0.465-27.248-3.977-61.287,2-86,6.077-25.129,9.674-49.908,19-72C66.829,120.173,143.664,49.624,255,13c19.76-6.5,41.749-7.123,63-12l42-1c39.638-.01,74.812,7.125,104,18,13.981,5.209,26.358,7.692,39,14,82.9,41.367,141.076,104.3,178,192,15.671,37.222,32.514,104.079,22,159H130v-1h1c8.681-13.419,28.973-28.8,41-40,3.674-3.421,9.2-13.329,14-12,4.224,1.867,11.04,8.853,12,14-6.3,4.141-10.6,10.9-16,16-0.234,7.856,1.779,12.476,9,13,1.871,1.135,5.018.546,7-1,7.625-2.713,10.089-11.652,17-15,6.6,10.417,23.234,24.821,43,18,10.918-3.768,24.024-20.024,32-28,3.83-3.83,21.6-16.141,20-23-1.588-6.825-12.387-13.387-17-18-5.207-5.207-21.564-25.824-28-27-6.534-1.194-11,7-14,10-5.83,5.832-27.6,30.569-34,32-3.163-4.655-8.7-6.579-10-13,20.521-13.45,33.1-38.027,54-51,7.326-4.548,18.285-4.986,30-5h12c9.029-2.436,18.364-7.746,25-13,14.4-11.4,9.969-42.051,24-52,8.4-5.955,23.837-3.729,34-8,29.154-12.251,28.733-34.3,27-71C424.051,102.86,434.12,92.2,447,90Zm-56,33h2c0.01,16.466-.368,27.591-10,34-10.3,6.855-31.421,3.908-43,12-20.3,14.185-13.553,45.16-30,57-10.23,7.364-30.333,2.518-44,7-10.976,3.6-42.567,33.418-48,43h-1v-1c-2.271-1.47-3.009-2.1-4-5,9.845-6.415,15.777-18.018,25-25,27.025-20.458,49.808-46.769,77-67,16.811-12.507,33.053-26.081,50-38C372.949,134.41,385.024,130.5,391,123Zm65,144c4.533,0.4,7.441,1.568,9,5,1.988,2.156,2.069,4.577,2,9-4.109,2.77-4.635,4.862-12,5-4.026-4.049-6.13-4.21-6-13,0.8-1.021.355-.274,1-2A29.369,29.369,0,0,0,456,267ZM269,311c3.986,1.229,14.525,11.252,13,14-7.6,11.494-20.488,19.277-30,29-10.78.229-11.957-3.059-17-8v-2C240.763,340.255,266.407,316.5,269,311ZM699,412c-0.233,13.92-6.263,27.113-10,38-10.588,30.843-21.811,55.775-38,80-41.583,62.223-94.628,108.56-168,139-20.963,8.7-41.575,10.848-66,17-36.769,9.262-107.464,8.347-143-2-73.121-21.291-131.825-50.306-176-100-10.045-11.3-22.185-21.5-31-34-8.016-11.371-13.539-22.77-21-35C30.343,489.333,9.765,445.081,7,408c12.071,0.226,22.646,7.791,37,4,12.057-3.184,28.242-17.846,44-14,12.114,2.957,20.683,10.967,33,14,23.2,5.713,35.177-10.339,51-14s30.9,10.8,43,14c23.263,6.149,37.2-10.334,53-14,16.3-3.783,31.135,10.857,44,14,22.654,5.534,34.587-10.416,50-14,16.879-3.925,31.786,10.771,45,14,22.789,5.569,35.306-10.372,51-14,16.183-3.741,30.85,10.786,43,14,25.206,6.668,35.253-13.32,54-14,23.539-.854,30.924,20.317,58,14,12.843-3,27.433-18.079,44-14C671.913,401.672,679.534,411.445,699,412ZM337,439c-1.628,1.088-5.859,1.593-8,2-7.1,10.462-6.3,13.535,2,22,19.044-.061,45.146-1.68,62,2,13.767,3.006,32,6.155,45,3,2.734-4.221,4.851-5.643,5-13a11.725,11.725,0,0,1-2-5C418.989,437.505,370.948,439.138,337,439ZM228,449c-6.965,5.163-18.675,5.556-27,9-23.305,9.641-50.285,22.886-60,46-15.444,36.746,27.345,58.844,49,70,67.8,34.928,204.035,44.939,289,17,38.14-12.541,85.573-27.833,95-69,2.331-10.179-4.513-19.849-8-25-11.955-17.658-28-26.208-49-35-6.985-2.924-23.2-12.3-31-7-3.261,1.037-3.918,1.784-5,5-3.659,4.978.462,12.463,4,14,4.031,3.548,10.62,3.736,16,6,12.811,5.392,30.015,13.8,36,26,4.678,9.538-1.643,18.386-5,23-11.76,16.165-32.486,22.479-53,30-69.721,25.561-186.38,24.874-253-3-17.765-7.433-31.878-12.435-44-25-3.54-3.669-10.023-10.367-8-19,4.273-18.237,25.885-27.423,42-34,8.292-3.384,23.713-3.71,27-12,1.664-2.069,1.91-4.155,2-8-2.3-2.891-2.115-5.469-6-7C236.605,448.8,232.873,448.859,228,449Zm17,39c-2.468,2.65-5.352,5.529-8,8q0.5,6.5,1,13c8.067,16.138,60.34,35.192,85,29,2.023-3.491,6.782-10.914,3-17-4.865-7.827-17.988-6.069-28-9-8.729-2.555-19.934-5.3-27-10C261.762,495.858,261.456,488,245,488Zm214,0c-1.961,1.527-4.8,1.515-7,3-5.173,3.486-9.142,9.96-15,13-17.5,9.079-44.8,9.617-65,15-2.018,4.02-3.727,5.775-4,12a18.334,18.334,0,0,1,3,7,9.6,9.6,0,0,1,5,3c34.424,0.813,95.919-11.553,99-40-3.31-4.38-3.146-8.979-9-11C464.105,488.479,462.41,488.211,459,488Z"/>
</svg>
